<svg width="1038" height="148" viewBox="0 0 1038 148" fill="none" xmlns="http://www.w3.org/2000/svg">
<path d="M672.57 34H658.57L645.09 71.25C642.54 78.39 639.66 86.46 637.41 93.51C635.28 86.56 632.51 78.29 629.94 71.24L616.33 34H602V37.34L629 107.12H645.59L672.47 37.59L672.57 34Z" fill="white"/>
<path d="M764.14 47.9101C760.44 47.8662 756.793 48.7887 753.559 50.5864C750.325 52.384 747.616 54.9946 745.7 58.1601V49.2601H731.85V107.06H745.93V74.3301C745.93 66.3901 751.54 61.0601 759.88 61.0601C766.42 61.0601 769.47 64.5101 769.47 71.9101V107.08H783.55V69.5001C783.55 55.5801 776.66 47.9101 764.14 47.9101Z" fill="white"/>
<path d="M870.88 82.05C870.88 90.05 865.44 95.2 857.04 95.2C850.42 95.2 847.34 91.75 847.34 84.35V49.28H833.26V86.76C833.26 100.76 840.19 108.46 852.78 108.46C856.455 108.499 860.076 107.582 863.29 105.799C866.503 104.016 869.198 101.429 871.11 98.29V107.08H884.96V49.28H870.88V82.05Z" fill="white"/>
<path d="M908.33 57.42V49.28H894.54V107.08H908.63V78.47C908.63 67.52 912.23 63.83 922.93 63.83H925.7L927.7 61.14V48.71H923.59C916.62 48.71 911.58 51.57 908.33 57.42Z" fill="white"/>
<path d="M699.25 47.91C681.53 47.91 670.53 59.66 670.53 78.59C670.53 97.23 681.35 108.36 699.48 108.36C713.02 108.36 721.24 102.75 724.61 91.2L724.72 90.81L722.64 88.69H711.64L711.46 89.11C710.1 92.32 707.52 96 699.53 96C691.23 96 686.18 91.56 684.9 83.16H724.97L725.14 81.32C725.36 79.03 725.5 76.48 725.5 74.68C725.45 57.67 715.9 47.91 699.25 47.91ZM685.06 71.85C686.57 63.94 691.28 59.92 699.06 59.92C706.84 59.92 710.99 63.72 711.92 71.85H685.06Z" fill="white"/>
<path d="M957.65 47.91C939.94 47.91 928.93 59.66 928.93 78.59C928.93 97.23 939.75 108.36 957.88 108.36C971.41 108.36 979.63 102.75 983.01 91.2L983.13 90.81L981.03 88.69H970.03L969.85 89.11C968.49 92.32 965.85 96 957.91 96C949.61 96 944.56 91.56 943.28 83.16H983.33L983.51 81.32C983.72 79.01 983.86 76.47 983.86 74.68C983.85 57.67 974.33 47.91 957.65 47.91ZM943.46 71.85C944.95 63.93 949.65 59.92 957.46 59.92C965.27 59.92 969.39 63.72 970.33 71.85H943.46Z" fill="white"/>
<path d="M1014.97 71.98C1004.75 70.31 1003.34 67.65 1003.34 64.98C1003.34 61.24 1006.17 59.42 1012 59.42C1017.83 59.42 1020.53 61.31 1022.1 66.42L1022.25 66.91H1033.83L1035.73 65.27L1035.62 64.85C1032.5 52.85 1025.73 47.85 1012.23 47.85C997.85 47.85 989.6 54.3 989.6 65.55C989.6 75.55 995.82 80.9 1010.39 83.55C1023.54 85.83 1023.54 88.31 1023.54 90.69C1023.48 93.3 1022.44 96.75 1014.07 96.75C1007.07 96.75 1003.15 94.37 1000.97 88.75L1000.8 88.31H989.64L987.49 90.78L987.59 91.14C990.73 103.06 998.86 108.37 1013.94 108.37C1029.02 108.37 1037.26 101.97 1037.26 90.37C1037.24 80.16 1030.79 74.81 1014.97 71.98Z" fill="white"/>
<path d="M810.09 34.21H795.98V49.28H787.85V61.64H795.98V89.05C795.98 101.38 802.64 108.46 814.23 108.46H814.74C818.595 108.462 822.425 107.837 826.08 106.61L826.55 106.45V95.67L823.55 93.87L823.25 93.96C821 94.6553 818.664 95.0323 816.31 95.08C811.7 95.08 810.06 93.2 810.06 87.91V61.65H827.21V49.28H810.09V34.21Z" fill="white"/>
<path fill-rule="evenodd" clip-rule="evenodd" d="M28.95 33.6667H0V106.787H14.65V82.1467H29.18C37.18 82.1467 43.74 79.8567 48.3 75.6367C52.86 71.4167 55.38 65.3267 55.38 57.9067C55.38 49.9567 53.18 43.9067 48.69 39.7467C44.2 35.5867 37.55 33.6667 28.95 33.6667ZM14.67 46.8268H27.92C32.92 46.8268 36.09 47.6067 38.04 49.3067C39.99 51.0067 40.74 53.4167 40.83 57.3067V57.9868C40.83 62.1068 39.83 64.8367 37.91 66.5667C35.99 68.2967 32.76 69.1767 28.03 69.1767H14.67V46.8268Z" fill="white"/>
<path d="M246.46 28.9868H232.38V106.757H246.46V28.9868Z" fill="white"/>
<path d="M223.73 28.9868H209.64V106.757H223.73V28.9868Z" fill="white"/>
<path fill-rule="evenodd" clip-rule="evenodd" d="M347.22 78.2368L364.71 52.9068V48.9668H351.19L337.69 70.9068L323.76 48.9668H309.44V52.9368L327.27 77.0368L309.33 102.817V106.767H323.23L336.65 84.0968L350.85 106.767H365.06V102.797L347.22 78.2368Z" fill="white"/>
<path fill-rule="evenodd" clip-rule="evenodd" d="M83.5499 47.6968C76.9699 47.6968 71.4499 49.2668 67.2499 52.2968C62.9131 55.526 59.9387 60.2585 58.9099 65.5668L58.8399 65.8968L60.8399 68.3468H72.4299L72.5799 67.8568C73.1551 65.5161 74.4832 63.4292 76.3599 61.9168C78.391 60.5773 80.8013 59.9318 83.2299 60.0768C86.8799 60.0768 89.2299 60.8668 90.7699 62.4468C92.3099 64.0268 93.0399 66.5968 93.0399 70.4468V72.7868H77.8199C71.3099 72.7868 66.0199 74.4468 62.3499 77.5768C58.6799 80.7068 56.6799 85.2868 56.6799 90.9268C56.6799 96.3268 58.3299 100.597 61.5699 103.517C64.8099 106.437 69.4799 107.887 75.3999 107.887C78.9865 107.928 82.5254 107.062 85.6879 105.37C88.8504 103.677 91.5342 101.214 93.4899 98.2068V106.737H107.12V70.3568C107.12 62.9468 105.18 57.2468 101.18 53.3568C97.1799 49.4668 91.2599 47.6968 83.5499 47.6968ZM93.0199 83.7568V84.7068C93.0488 86.2475 92.7165 87.7735 92.0497 89.1627C91.3829 90.5519 90.4001 91.7656 89.1799 92.7068C86.7199 94.6568 83.1799 95.8068 78.8399 95.8068C75.8399 95.8068 73.6999 95.2468 72.3199 94.2568C71.6425 93.7378 71.105 93.0584 70.7559 92.2797C70.4067 91.5011 70.2569 90.6478 70.3199 89.7968C70.2592 88.9316 70.4245 88.0655 70.7997 87.2836C71.1749 86.5016 71.747 85.8307 72.4599 85.3368C73.9099 84.3368 76.1699 83.7768 79.3299 83.7768L93.0199 83.7568Z" fill="white"/>
<path fill-rule="evenodd" clip-rule="evenodd" d="M176.86 47.6968C170.28 47.6968 164.76 49.2668 160.56 52.2968C156.216 55.5225 153.234 60.2555 152.2 65.5668L152.13 65.8968L154.13 68.3468H165.71L165.86 67.8568C166.435 65.5161 167.763 63.4292 169.64 61.9168C171.667 60.5768 174.074 59.9311 176.5 60.0768C180.16 60.0768 182.5 60.8668 184.05 62.4468C185.6 64.0268 186.31 66.5968 186.31 70.4468V72.7868H171.11C164.6 72.7868 159.31 74.4468 155.64 77.5768C151.97 80.7068 149.97 85.2868 149.97 90.9268C149.97 96.3268 151.62 100.597 154.85 103.517C158.08 106.437 162.77 107.887 168.69 107.887C172.277 107.92 175.814 107.051 178.977 105.36C182.14 103.668 184.827 101.208 186.79 98.2068V106.737H200.41V70.3568C200.41 62.9468 198.41 57.2468 194.41 53.3568C190.41 49.4668 184.55 47.6968 176.86 47.6968ZM186.32 83.7568V84.7068C186.351 86.2467 186.02 87.7725 185.355 89.1617C184.69 90.551 183.709 91.7651 182.49 92.7068C180.03 94.6568 176.49 95.8068 172.14 95.8068C169.14 95.8068 167 95.2468 165.63 94.2568C164.953 93.7378 164.415 93.0584 164.066 92.2797C163.717 91.5011 163.567 90.6478 163.63 89.7968C163.569 88.9316 163.735 88.0655 164.11 87.2836C164.485 86.5016 165.057 85.8307 165.77 85.3368C167.23 84.3368 169.49 83.7768 172.64 83.7768L186.32 83.7568Z" fill="white"/>
<path fill-rule="evenodd" clip-rule="evenodd" d="M280.34 47.6968C273.76 47.6968 268.24 49.2668 264.04 52.2968C259.693 55.5205 256.711 60.2544 255.68 65.5668L255.6 65.8968L257.6 68.3468H269.15L269.3 67.8568C269.865 65.5116 271.195 63.4215 273.08 61.9168C275.107 60.5768 277.514 59.9311 279.94 60.0768C283.59 60.0768 285.94 60.8668 287.49 62.4468C289.04 64.0268 289.76 66.5968 289.76 70.4468V72.7868H274.55C268.04 72.7868 262.75 74.4468 259.08 77.5768C255.41 80.7068 253.41 85.2868 253.41 90.9268C253.41 96.3268 255.06 100.597 258.3 103.517C261.54 106.437 266.21 107.887 272.13 107.887C275.718 107.927 279.258 107.06 282.421 105.368C285.585 103.676 288.271 101.213 290.23 98.2068V106.737H303.85V70.3568C303.85 62.9468 301.91 57.2468 297.91 53.3568C293.91 49.4668 288.02 47.6968 280.34 47.6968ZM289.81 83.7568V84.7068C289.838 86.2473 289.505 87.7731 288.839 89.1621C288.172 90.5512 287.189 91.7651 285.97 92.7068C283.51 94.6568 279.97 95.8068 275.62 95.8068C272.62 95.8068 270.48 95.2468 269.11 94.2568C268.432 93.7384 267.894 93.0591 267.545 92.2803C267.195 91.5015 267.046 90.6479 267.11 89.7968C267.048 88.9325 267.212 88.0671 267.585 87.2852C267.959 86.5033 268.529 85.8319 269.24 85.3368C270.69 84.3368 272.95 83.7768 276.11 83.7768L289.81 83.7568Z" fill="white"/>
<path fill-rule="evenodd" clip-rule="evenodd" d="M134.55 51.0568C132.387 52.5871 130.61 54.6003 129.36 56.9368V48.7968H115.63V106.567H129.71V77.9868C129.71 72.3668 130.71 68.7768 132.86 66.5568C135.01 64.3368 138.52 63.3468 144.01 63.3468H146.79L148.79 60.6568V48.2268H144.68C141.092 48.1038 137.554 49.0922 134.55 51.0568Z" fill="white"/>
<path d="M433.737 0H541.265V6.23103H541.261L524.801 20.9956H450.201L433.741 6.23103H433.737V0Z" fill="white"/>
<path d="M541.324 143.831L433.796 143.831V137.6L541.324 137.6V143.831Z" fill="white"/>
<path d="M566.402 33.4524H408.599V39.6834H566.402V33.4524Z" fill="white"/>
<path d="M408.599 100.863H566.402V107.094H408.599V100.863Z" fill="white"/>
<path d="M580 67.6604H579.99L531.13 60.6804H443.874L395.01 67.6604H395V73.8914H580V67.6604Z" fill="white"/>
<path d="M541.351 137.6L529.662 119.617H445.527L433.838 137.6L541.351 137.6Z" fill="white"/>
<path d="M454.214 48.2228L408.599 39.6854H566.402L520.787 48.2228H454.214Z" fill="white"/>
<path d="M433.27 86.3507L408.599 100.863H566.402L541.265 86.3507H433.27Z" fill="white"/>
</svg>
